<svg xmlns="http://www.w3.org/2000/svg"  viewBox="0 0 100 100" width="400px" height="400px"><path fill="#78a2d2" d="M17,83h12V66H17V83z"/><path fill="#f9e65c" d="M35,83h12V52H35V83z"/><path fill="#60be92" d="M71,83h12V18H71V83z"/><path fill="#f15b6c" d="M53,83h12V36H53V83z"/><path fill="#1f212b" d="M83,84H71c-0.552,0-1-0.447-1-1V18c0-0.553,0.448-1,1-1h12c0.552,0,1,0.447,1,1v65 C84,83.553,83.552,84,83,84z M72,82h10V19H72V82z M65,84H53c-0.552,0-1-0.447-1-1V36c0-0.553,0.448-1,1-1h12c0.552,0,1,0.447,1,1 v47C66,83.553,65.552,84,65,84z M54,82h10V37H54V82z M47,84H35c-0.552,0-1-0.447-1-1V52c0-0.553,0.448-1,1-1h12 c0.552,0,1,0.447,1,1v31C48,83.553,47.552,84,47,84z M36,82h10V53H36V82z M29,84H17c-0.552,0-1-0.447-1-1V66c0-0.553,0.448-1,1-1 h12c0.552,0,1,0.447,1,1v17C30,83.553,29.552,84,29,84z M18,82h10V67H18V82z"/><path fill="#1f212b" d="M87,84H13c-0.552,0-1-0.447-1-1s0.448-1,1-1h74c0.552,0,1,0.447,1,1S87.552,84,87,84z"/><path fill="#1f212b" d="M20.5,81c-0.276,0-0.5-0.224-0.5-0.5v-6c0-0.276,0.224-0.5,0.5-0.5s0.5,0.224,0.5,0.5v6 C21,80.776,20.776,81,20.5,81z M74.5,80c-0.276,0-0.5-0.224-0.5-0.5v-46c0-0.276,0.224-0.5,0.5-0.5s0.5,0.224,0.5,0.5v46 C75,79.776,74.776,80,74.5,80z M56.5,80c-0.276,0-0.5-0.224-0.5-0.5v-28c0-0.276,0.224-0.5,0.5-0.5s0.5,0.224,0.5,0.5v28 C57,79.776,56.776,80,56.5,80z M38.5,80c-0.276,0-0.5-0.224-0.5-0.5v-19c0-0.276,0.224-0.5,0.5-0.5s0.5,0.224,0.5,0.5v19 C39,79.776,38.776,80,38.5,80z M20.5,72c-0.276,0-0.5-0.224-0.5-0.5v-2c0-0.276,0.224-0.5,0.5-0.5s0.5,0.224,0.5,0.5v2 C21,71.776,20.776,72,20.5,72z M38.5,58c-0.276,0-0.5-0.224-0.5-0.5v-2c0-0.276,0.224-0.5,0.5-0.5s0.5,0.224,0.5,0.5v2 C39,57.776,38.776,58,38.5,58z M56.5,49c-0.276,0-0.5-0.224-0.5-0.5v-4c0-0.276,0.224-0.5,0.5-0.5s0.5,0.224,0.5,0.5v4 C57,48.776,56.776,49,56.5,49z M56.5,42c-0.276,0-0.5-0.224-0.5-0.5v-2c0-0.276,0.224-0.5,0.5-0.5s0.5,0.224,0.5,0.5v2 C57,41.776,56.776,42,56.5,42z M74.5,31c-0.276,0-0.5-0.224-0.5-0.5v-4c0-0.276,0.224-0.5,0.5-0.5s0.5,0.224,0.5,0.5v4 C75,30.776,74.776,31,74.5,31z M74.5,24c-0.276,0-0.5-0.224-0.5-0.5v-2c0-0.276,0.224-0.5,0.5-0.5s0.5,0.224,0.5,0.5v2 C75,23.776,74.776,24,74.5,24z"/><path fill="#1f212b" d="M65,30c-0.552,0-1-0.447-1-1V19H54c-0.552,0-1-0.447-1-1s0.448-1,1-1h11c0.552,0,1,0.447,1,1v11 C66,29.553,65.552,30,65,30z"/><path fill="#1f212b" d="M13,57c-0.254,0-0.509-0.097-0.704-0.29c-0.393-0.389-0.396-1.021-0.007-1.414l15.291-15.434 c0.188-0.188,0.442-0.295,0.708-0.296c0.292-0.039,0.521,0.105,0.709,0.293l2.829,2.829l14.849-14.85 c0.391-0.391,1.023-0.391,1.414,0l2.829,2.828l12.375-12.374c0.391-0.391,1.023-0.391,1.414,0s0.391,1.023,0,1.414L51.625,32.788 c-0.391,0.391-1.023,0.391-1.414,0l-2.829-2.828L32.534,44.81c-0.188,0.188-0.442,0.293-0.707,0.293l0,0 c-0.265,0-0.52-0.105-0.707-0.293l-2.825-2.825L13.71,56.704C13.515,56.901,13.257,57,13,57z"/><g><path fill="#fef6aa" d="M14.821,22.5c0,5.898,4.781,10.679,10.679,10.679S36.179,28.398,36.179,22.5 S31.398,11.821,25.5,11.821S14.821,16.602,14.821,22.5z"/></g><g><path fill="#1f212b" d="M14,22.5C14,16.156,19.159,11,25.5,11C31.844,11,37,16.156,37,22.5C37,28.841,31.844,34,25.5,34 C19.159,34,14,28.841,14,22.5z M16,22.5c0,5.238,4.262,9.5,9.5,9.5s9.5-4.262,9.5-9.5S30.738,13,25.5,13S16,17.262,16,22.5z"/></g><g><path fill="#1f212b" d="M24.592,18.358l-0.63,0.793c-0.126,0.126-0.288,0.18-0.396,0.18c-0.378,0-0.648-0.396-0.648-0.774 c0-0.27,0.144-0.576,0.378-0.738l1.873-1.8c0.126-0.126,0.27-0.198,0.486-0.198c0.396,0,0.846,0.233,0.846,0.63v11.92 c0,0.414-0.486,0.63-0.954,0.63c-0.486,0-0.954-0.216-0.954-0.63V18.358z"/></g></svg>