<svg xmlns="http://www.w3.org/2000/svg"  viewBox="0 0 128 128" width="64px" height="64px"><polyline fill="#444b54" points="81.4,30.7 71.8,56.4 42.3,51.2 42,23.7"/><polyline fill="none" stroke="#444b54" stroke-linecap="round" stroke-linejoin="round" stroke-miterlimit="10" stroke-width="6" points="94.7,36.1 80.9,33.6 71.8,56.4 42.3,51.2 41.5,26.7 27.7,24.3"/><line x1="4.9" x2="46.3" y1="4" y2="11.3" fill="none" stroke="#71c2ff" stroke-linecap="round" stroke-linejoin="round" stroke-miterlimit="10" stroke-width="6"/><polygon fill="#444b54" stroke="#444b54" stroke-linecap="round" stroke-linejoin="round" stroke-miterlimit="10" stroke-width="6" points="24.4,33.8 17.8,32.7 17.9,22.5 27.7,24.3"/><line x1="17.6" x2="17.7" y1="52.9" y2="45.3" fill="#444b54" stroke="#444b54" stroke-linecap="round" stroke-linejoin="round" stroke-miterlimit="10" stroke-width="6"/><polygon fill="#444b54" stroke="#444b54" stroke-linecap="round" stroke-linejoin="round" stroke-miterlimit="10" stroke-width="6" points="101.2,47.4 94.6,46.2 94.7,36.1 104.6,37.8"/><line x1="97" x2="94.4" y1="59.3" y2="66.5" fill="#444b54" stroke="#444b54" stroke-linecap="round" stroke-linejoin="round" stroke-miterlimit="10" stroke-width="6"/><line x1="81.7" x2="123.1" y1="17.5" y2="24.8" fill="none" stroke="#71c2ff" stroke-linecap="round" stroke-linejoin="round" stroke-miterlimit="10" stroke-width="6"/><circle cx="59.1" cy="42" r="6" fill="#fff"/><line x1="24" x2="124" y1="124" y2="124" fill="#444b54" stroke="#444b54" stroke-linecap="round" stroke-linejoin="round" stroke-miterlimit="10" stroke-width="6"/><line x1="4" x2="4" y1="124" y2="124" fill="#444b54" stroke="#444b54" stroke-linecap="round" stroke-linejoin="round" stroke-miterlimit="10" stroke-width="6"/></svg>