<svg xmlns="http://www.w3.org/2000/svg"  viewBox="0 0 128 128" width="128px" height="128px"><path fill="#f8e390" d="M83.1 11.600000000000001A14.5 14.7 0 1 0 83.1 41A14.5 14.7 0 1 0 83.1 11.600000000000001Z"/><path fill="#444b54" d="M83.1,44c-9.6,0-17.5-8-17.5-17.7c0-9.8,7.9-17.7,17.5-17.7s17.5,8,17.5,17.7C100.6,36.1,92.7,44,83.1,44z M83.1,14.5c-6.3,0-11.5,5.3-11.5,11.7S76.7,38,83.1,38s11.5-5.3,11.5-11.7S89.4,14.5,83.1,14.5z"/><g><path fill="#444b54" d="M97.6,64h-29c-1.7,0-3-1.3-3-3s1.3-3,3-3h29c1.7,0,3,1.3,3,3S99.2,64,97.6,64z"/></g><g><path fill="#efd5be" d="M115.8,91.4l-30.3,11.9l0,0c0.6-1,1-2.1,0.9-3.4c-0.2-2.8-2.7-4.9-5.6-4.9H66.3C60.6,87,45.4,87,45.4,87H33.2v24.4l28.8,9c0,0,8.7,2.5,14.9,0c5.3-2.1,36.6-18.3,43.3-21.9c1.3-0.7,3.1-2.7,2.1-5l0,0C121.4,91.6,119.8,90.3,115.8,91.4z"/><path fill="#444b54" d="M81,108.7H59.8c-1.7,0-3-1.3-3-3s1.3-3,3-3H81c1.3,0,2.4-1,2.4-2.3c0-1.7,1.3-3,3-3s3,1.3,3,3C89.4,105,85.6,108.7,81,108.7z"/><path fill="#444b54" d="M70.2,124.5c-4.8,0-8.8-1.2-9.1-1.2l-28.8-9c-1.3-0.4-2.1-1.6-2.1-2.9V87c0-1.7,1.3-3,3-3s3,1.3,3,3v22.2l26.7,8.3c0,0,7.7,2.2,12.9,0.1c5-2,35.5-17.8,43-21.8c0.1-0.1,0.9-0.7,0.7-1.1c-0.2-0.5-0.4-1-2.7-0.4l-21.4,8.8c-1.5,0.6-3.3-0.1-3.9-1.6s0.1-3.3,1.6-3.9l21.6-8.9c0.1,0,0.2-0.1,0.3-0.1c6.6-1.8,9.1,1.6,10,3.8c1.6,3.7-0.6,7.3-3.5,8.8c-6.7,3.6-38.1,19.8-43.5,22C75.5,124.1,72.7,124.5,70.2,124.5z"/><path fill="#444b54" d="M85.5,106.3c-0.1,0-0.2,0-0.4,0l0,0c-1-0.1-1.9-0.8-2.4-1.7c-0.4-0.9-0.3-2.1,0.2-2.9c0.2-0.3,0.4-0.8,0.4-1.5c-0.1-1.2-1.3-2.1-2.6-2.1H66.3c-1,0-1.9-0.5-2.5-1.3C59.9,91.3,49.2,90,45.4,90h-2.2c-1.7,0-3-1.3-3-3s1.3-3,3-3h2.2c0.7,0,15.4,0.1,22.3,8.1h13.1c4.4,0,8.2,3.3,8.6,7.6c0.2,1.8-0.3,3.6-1.3,5.2C87.5,105.8,86.6,106.3,85.5,106.3z"/><path fill="#9eb9d3" d="M30.2,115.4c1.7,0,3-1.3,3-3V86.3c0-1.7-1.4-3.1-3.2-3.1H5.7c-0.4,0,10,32.2,10,32.2H30.2z"/><path fill="#444b54" d="M30.2,118.4H15.6c-1.7,0-3-1.3-3-3s1.3-3,3-3h14.5V86.3c0-0.1-0.1-0.1-0.2-0.1H5.7c-1.7,0-3-1.3-3-3s1.3-3,3-3H30c3.4,0,6.2,2.7,6.2,6.1v26.1C36.2,115.7,33.5,118.4,30.2,118.4z"/></g></svg>